<?xml version="1.0" encoding="utf-8"?>
<!-- Full wordmark: red mark + black KOSTA LEGAL (Illustrator canvas cropped to logo bounds). -->
<!-- viewBox bottom was 523 but outer ring reaches y≈525; +6 units padding against stroke/AA clipping -->
<svg version="1.1" id="KostaLegal-letterhead" xmlns="http://www.w3.org/2000/svg" xmlns:xlink="http://www.w3.org/1999/xlink" x="0px" y="0px"
	 width="439" height="219" viewBox="79 311 439 219" preserveAspectRatio="xMidYMid meet" xml:space="preserve">
<style type="text/css">
	.st0{fill:#E6282C;}
</style>
<g>
	<path class="st0" d="M211.5,461.5c0-29.8-24.2-54-54-54c-29.8,0-54,24.2-54,54s24.2,54,54,54C187.3,515.5,211.5,491.4,211.5,461.5
		 M221,461.5c0,35.1-28.4,63.5-63.5,63.5c-35.1,0-63.5-28.4-63.5-63.5s28.4-63.5,63.5-63.5C192.5,398.1,221,426.5,221,461.5z"/>
	<path class="st0" d="M194,461.5c0-20.2-16.3-36.5-36.5-36.5c-20.2,0-36.5,16.3-36.5,36.5s16.3,36.5,36.5,36.5
		C177.6,498,194,481.7,194,461.5 M203.4,461.5c0,25.4-20.6,46-46,46c-25.4,0-46-20.6-46-46s20.6-46,46-46
		C182.9,415.6,203.4,436.1,203.4,461.5z"/>
	<polygon class="st0" points="86.3,388 157.5,316.9 228.6,388 215.2,388 157.5,330.3 99.7,388 	"/>
	<polygon class="st0" points="111.9,388 157.5,342.5 203,388 189.6,388 157.5,355.9 125.3,388 	"/>
	<path d="M473.1,420.9l6.8-16.9l6.8,16.9H473.1z M492.8,436.1h9.3l-22.3-50.9l-22.3,50.9h9.3l3.3-8.3h19.2L492.8,436.1z"/>
	<polygon points="435.1,436.1 443.3,436.1 443.3,395.4 455.9,395.4 455.9,387.2 422.5,387.2 422.5,395.4 435.1,395.4 	"/>
	<path d="M397.5,436.8c8.2,0,15.3-5.2,15.3-13.9c0-8.7-7.1-11.9-12.3-14.6c-4.4-2.3-8.3-4.6-8.3-8.5c0-3.1,2.6-5.3,6.2-5.3
		c2.7,0,5.1,1.3,6,4.1l7.2-3.3c-2.2-5.2-7-8.8-13.2-8.8c-7.9,0-13.9,5.9-13.9,13.8c0,8.3,6.4,12,11.5,14.6c3.5,1.8,8.4,4.2,8.4,8.4
		c0,3.5-3.3,5.4-7,5.4c-4.2,0-7.2-2.4-8.5-6l-7,3.1C384.2,432.4,389.9,436.8,397.5,436.8"/>
	<path d="M349.5,428.4c-9.3,0-16.7-7.6-16.7-16.7c0-9.3,7.6-16.7,16.7-16.7c9.3,0,16.7,7.6,16.7,16.7
		C366.3,421,358.7,428.4,349.5,428.4 M349.5,436.8c13.7,0,25.1-11,25.1-25.1c0-13.7-11-25.1-25.1-25.1c-13.7,0-25.1,11-25.1,25.1
		C324.4,425.3,335.4,436.8,349.5,436.8z"/>
	<polygon points="285.6,436.1 293.9,436.1 293.9,415 309.6,436.1 319.8,436.1 300.8,411.6 319.8,387.2 309.6,387.2 293.9,408.3 
		293.9,387.2 285.6,387.2 	"/>
	<polygon points="478.4,516.8 508.9,516.8 508.9,508.5 486.7,508.5 486.7,467.8 478.4,467.8 	"/>
	<path d="M438.8,501.5l6.8-16.9l6.8,16.9H438.8z M458.6,516.8h9.3l-22.3-50.9l-22.3,50.9h9.3l3.3-8.3h19.2L458.6,516.8z"/>
	<path d="M396.4,517.4c6.4,0,12.3-2.4,17.4-7.1l0.1-0.4v-21.7h-17.6v8.3h9.9v9.3c-2.9,2.2-6.3,3.2-9.9,3.2
		c-9.5,0-16.9-7.4-16.9-16.7c0-9.4,7.5-16.7,16.9-16.7c4.3,0,8.3,1.5,11.5,4.6l5.9-5.9c-5-4.8-11-7.1-17.4-7.1
		c-14,0-25.3,11.1-25.3,25.1C371,506.3,382.3,517.4,396.4,517.4"/>
	<polygon points="329.5,516.8 360.1,516.8 360.1,508.5 337.8,508.5 337.8,496.4 357.5,496.4 357.5,488.2 337.8,488.2 337.8,476.1 
		360.1,476.1 360.1,467.8 329.5,467.8 	"/>
	<polygon points="285.8,516.8 316.3,516.8 316.3,508.5 294.1,508.5 294.1,467.8 285.8,467.8 	"/>
</g>
</svg>
