<?xml version="1.0" encoding="utf-8"?>
<!-- Red letterhead mark only: double ring and crest. No black wordmark. -->
<svg version="1.1" xmlns="http://www.w3.org/2000/svg"
	width="146" height="218" viewBox="84 314 146 218" preserveAspectRatio="xMidYMid meet">
<style type="text/css">
	.st0{fill:#E6282C;}
</style>
<g>
	<path class="st0" d="M211.5,461.5c0-29.8-24.2-54-54-54c-29.8,0-54,24.2-54,54s24.2,54,54,54C187.3,515.5,211.5,491.4,211.5,461.5
		 M221,461.5c0,35.1-28.4,63.5-63.5,63.5c-35.1,0-63.5-28.4-63.5-63.5s28.4-63.5,63.5-63.5C192.5,398.1,221,426.5,221,461.5z"/>
	<path class="st0" d="M194,461.5c0-20.2-16.3-36.5-36.5-36.5c-20.2,0-36.5,16.3-36.5,36.5s16.3,36.5,36.5,36.5
		C177.6,498,194,481.7,194,461.5 M203.4,461.5c0,25.4-20.6,46-46,46c-25.4,0-46-20.6-46-46s20.6-46,46-46
		C182.9,415.6,203.4,436.1,203.4,461.5z"/>
	<polygon class="st0" points="86.3,388 157.5,316.9 228.6,388 215.2,388 157.5,330.3 99.7,388"/>
	<polygon class="st0" points="111.9,388 157.5,342.5 203,388 189.6,388 157.5,355.9 125.3,388"/>
</g>
</svg>
